# xmcd CD database file
#
# Track frame offsets:
#	150
#	18747
#	40062
#	58102
#	76447
#	93452
#	115032
#	135315
#	158000
#	174582
#	186052
#	200672
#
# Disc length: 2796 seconds
#
# Revision: 3
# Processed by: cddbd v1.5.2PL0 Copyright (c) Steve Scherf et al.
# Submitted via: CDex 1.51
#
DISCID=990aea0c
DTITLE=Sarah McLachlin - Surfacing
DYEAR=1997
DGENRE=Rock
TTITLE0=Building A Mystery
TTITLE1=I Love You
TTITLE2=Sweet Surrender
TTITLE3=Adia
TTITLE4=Do What You Have To Do
TTITLE5=Witness
TTITLE6=Angel
TTITLE7=Black and White
TTITLE8=Full Of Grace
TTITLE9=Last Dance
TTITLE10=Sweet Surrender (Jazz Version)
TTITLE11=Prayer Of St. Francis (Traditional)
EXTD=YEAR: 1997
EXTT0=
EXTT1=
EXTT2=
EXTT3=
EXTT4=
EXTT5=
EXTT6=
EXTT7=
EXTT8=
EXTT9=
EXTT10=
EXTT11=
PLAYORDER=
